<svg height="511pt" viewBox="1 0 511.99963 511" width="511pt" xmlns="http://www.w3.org/2000/svg"><path d="m503.117188 72.765625-63.390626-63.394531c-5.722656-5.71875-13.351562-8.871094-21.480468-8.871094s-15.757813 3.152344-21.476563 8.871094l-81.355469 81.355468c-3.90625 3.90625-3.90625 10.234376 0 14.140626s10.238282 3.90625 14.140626 0l21.210937-21.207032 78.066406 78.066406-179.601562 179.597657-78.066407-78.066407 101.824219-101.820312c3.90625-3.90625 3.90625-10.238281 0-14.144531s-10.238281-3.902344-14.144531 0l-161.964844 161.96875c-11.84375 11.84375-11.84375 31.113281 0 42.957031l5.683594 5.683594-96.660156 96.664062c-3.804688 3.800782-5.902344 8.875-5.902344 14.273438 0 5.398437 2.097656 10.46875 5.898438 14.273437l23.476562 23.476563c3.9375 3.9375 9.105469 5.902344 14.273438 5.902344 5.171874 0 10.339843-1.96875 14.277343-5.902344l96.660157-96.664063 5.6875 5.6875c5.917968 5.917969 13.699218 8.878907 21.476562 8.878907s15.558594-2.960938 21.480469-8.878907l53.070312-53.074219h.003907v-.003906l193.730468-193.730468c.003906-.003907.007813-.007813.007813-.007813.003906-.003906.003906-.007813.007812-.007813l28.273438-28.273437s.003906-.003906.003906-.003906c0-.003907.003906-.003907.003906-.003907l24.785157-24.785156c11.84375-11.84375 11.84375-31.113281 0-42.957031zm-138.210938-3.25 14.144531-14.140625 78.0625 78.066406-14.140625 14.140625zm-321.125 422.929687c-.0625.0625-.199219.066407-.261719 0l-23.476562-23.472656c-.0625-.0625-.0625-.203125 0-.265625l96.664062-96.664062 23.738281 23.738281zm145.304688-90.976562c-4.042969 4.046875-10.628907 4.046875-14.671876 0l-12.753906-12.75c0-.003906 0-.003906-.003906-.003906 0-.003906 0-.003906-.003906-.003906l-37.875-37.878907s-.003906-.003906-.003906-.003906l-12.753907-12.753906c-4.042969-4.042969-4.042969-10.625 0-14.671875l17.71875-17.71875 10.75 10.753906c1.953125 1.949219 4.511719 2.929688 7.070313 2.929688s5.121094-.980469 7.074218-2.929688c3.902344-3.90625 3.902344-10.238281 0-14.144531l-10.753906-10.75 14.144532-14.144531 78.0625 78.066406-14.140626 14.144531-10.746093-10.75c-3.90625-3.902344-10.238281-3.902344-14.144531 0-3.90625 3.90625-3.90625 10.238281 0 14.144531l10.746093 10.746094zm299.890624-299.890625-17.71875 17.71875-78.066406-78.066406 17.71875-17.714844c1.941406-1.945313 4.546875-3.015625 7.335938-3.015625 2.785156 0 5.394531 1.070312 7.335937 3.015625l63.394531 63.390625c4.042969 4.042969 4.042969 10.628906 0 14.671875zm0 0"/><path d="m423.355469 273.890625c-30.1875 0-54.75 24.558594-54.75 54.746094 0 30.191406 24.5625 54.75 54.75 54.75s54.75-24.558594 54.75-54.75c0-30.1875-24.558594-54.746094-54.75-54.746094zm0 20c15.683593 0 28.96875 10.445313 33.277343 24.746094h-66.550781c4.304688-14.300781 17.589844-24.746094 33.273438-24.746094zm0 69.496094c-15.683594 0-28.96875-10.449219-33.277344-24.75h66.554687c-4.308593 14.300781-17.589843 24.75-33.277343 24.75zm0 0"/><path d="m294.199219 136.082031c2.558593 0 5.117187-.976562 7.070312-2.929687l.003907-.003906c3.90625-3.902344 3.902343-10.234376 0-14.140626-3.90625-3.902343-10.238282-3.902343-14.144532.003907s-3.90625 10.238281 0 14.140625c1.949219 1.953125 4.511719 2.929687 7.070313 2.929687zm0 0"/><path d="m181.914062 330.574219c-3.90625-3.902344-10.234374-3.902344-14.140624.003906-3.902344 3.90625-3.902344 10.238281.003906 14.144531 1.953125 1.953125 4.511718 2.929688 7.070312 2.929688s5.117188-.976563 7.070313-2.929688c3.90625-3.90625 3.90625-10.238281 0-14.140625zm0 0"/></svg>