<svg height="443pt" viewBox="0 0 443.93443 443" width="443pt" xmlns="http://www.w3.org/2000/svg"><path d="m356.757812 65.78125 15.171876-15.171875 21.859374 21.859375-15.171874 15.171875zm0 0"/><path d="m381.832031 40.710938 15.171875-15.171876 21.859375 21.855469-15.175781 15.175781zm0 0"/><path d="m406.902344 15.640625 15.171875-15.171875 21.859375 21.855469-15.171875 15.175781zm0 0"/><path d="m309.550781 154.929688-20.078125-20.078126-48.085937 68.164063zm0 0"/><path d="m331.6875 90.855469 15.175781-15.171875 21.855469 21.859375-15.171875 15.171875zm0 0"/><path d="m40.078125 436.078125c11.121094 11.097656 29.125 11.097656 40.246094 0l255.1875-255.183594-15.914063-15.917969-103.257812 72.839844c-2.78125 1.964844-6.574219 1.640625-8.984375-.769531-2.410157-2.410156-2.734375-6.203125-.769531-8.988281l72.839843-103.253906-15.917969-15.914063-255.1875 255.1875c-11.09375 11.121094-11.09375 29.121094 0 40.242187zm0 0"/><path d="m306.617188 115.929688 15.171874-15.171876 21.859376 21.859376-15.171876 15.171874zm0 0"/></svg>